<svg xmlns="http://www.w3.org/2000/svg" xmlns:xlink="http://www.w3.org/1999/xlink" viewBox="0 0 500 500"><defs><style>.cls-1{fill:url(#Sky_2);}.cls-2{fill:gray;}.cls-10,.cls-12,.cls-3,.cls-4,.cls-6,.cls-8,.cls-9{fill:none;stroke-miterlimit:10;}.cls-12,.cls-3,.cls-4{stroke:gray;}.cls-4,.cls-8{stroke-width:4px;}.cls-5,.cls-7{font-size:12px;font-family:MyriadPro-Regular, Myriad Pro;}.cls-5{fill:#333;}.cls-6{stroke:#434343;}.cls-6,.cls-9{stroke-width:7px;}.cls-7{fill:#4d4d4d;}.cls-10,.cls-8{stroke:#000;stroke-linecap:round;}.cls-9{stroke:#1f1f1f;}.cls-10{stroke-width:3px;}.cls-11{fill:#212121;}.cls-12{stroke-width:2px;}.cls-13{fill:#a9a9a9;}</style><linearGradient id="Sky_2" x1="250" y1="500" x2="250" gradientUnits="userSpaceOnUse"><stop offset="0" stop-color="#dcdcdc"/><stop offset="0.1" stop-color="#d3d3d3"/><stop offset="0.27" stop-color="#b9b9b9"/><stop offset="0.48" stop-color="#909090"/><stop offset="0.57" stop-color="#7d7d7d"/><stop offset="0.87" stop-color="#5a5a5a"/><stop offset="0.99" stop-color="#464646"/></linearGradient></defs><title>Artboard 1</title><g id="Layer_1" data-name="Layer 1"><rect class="cls-1" width="500" height="500"/></g><g id="Layer_2" data-name="Layer 2"><circle class="cls-2" cx="393.5" cy="368.5" r="17.5"/><path class="cls-2" d="M90,351H393.5a17.5,17.5,0,0,0,0,35H90a17.5,17.5,0,0,0,0-35Z"/><path class="cls-2" d="M90,351a17.5,17.5,0,0,1,0,35h-.5a17.5,17.5,0,0,1,0-35Z"/><path class="cls-3" d="M90,351a17.5,17.5,0,0,1,0,35h-.5a17.5,17.5,0,0,1,0-35Z"/><circle class="cls-3" cx="393.5" cy="368.5" r="17.5"/><polyline class="cls-3" points="90 351 393.5 351 394 351"/><polyline class="cls-3" points="90 386 393.5 386 394 386"/><line class="cls-4" x1="112.5" y1="385" x2="112.5" y2="422"/><line class="cls-4" x1="194.67" y1="385" x2="194.67" y2="422"/><line class="cls-4" x1="276.83" y1="385" x2="276.83" y2="422"/><line class="cls-4" x1="359" y1="385" x2="359" y2="422"/><text class="cls-5" transform="translate(188.5 373)">255.255.255.0/24</text><line class="cls-6" x1="158" y1="284.5" x2="158" y2="351"/><text class="cls-7" transform="translate(102 434.5)">.101</text><text class="cls-7" transform="translate(186 433.5)">.102</text><text class="cls-7" transform="translate(265 432.5)">.103</text><text class="cls-7" transform="translate(344 433.5)">.104</text><line class="cls-8" x1="177" y1="129" x2="154" y2="154"/><line class="cls-8" x1="180" y1="153" x2="154" y2="154"/><line class="cls-8" x1="180" y1="153" x2="158" y2="195"/><line class="cls-9" x1="243" y1="264" x2="318.5" y2="263.5"/><line class="cls-10" x1="332.75" y1="232.96" x2="306.5" y2="288.5"/><line class="cls-10" x1="332.75" y1="232.96" x2="359" y2="288.5"/><line class="cls-10" x1="322.5" y1="258.5" x2="346.5" y2="266.5"/><line class="cls-10" x1="322.5" y1="258.5" x2="338.5" y2="247.5"/><line class="cls-10" x1="307.29" y1="286.72" x2="347.5" y2="267.5"/><path class="cls-10" d="M340.69,231.29a8.62,8.62,0,0,0-.13-12.27"/><path class="cls-10" d="M345.94,234.76a12.85,12.85,0,0,0-.07-18.29"/><path class="cls-10" d="M351.19,238.23a17.73,17.73,0,0,0-.07-25.23"/><path class="cls-10" d="M324.8,231.29a8.62,8.62,0,0,1,.13-12.27"/><path class="cls-10" d="M319.55,234.76a12.85,12.85,0,0,1,.07-18.29"/><path class="cls-10" d="M314.3,238.23a17.73,17.73,0,0,1,.07-25.23"/><rect class="cls-11" x="84" y="195" width="159" height="91"/><line class="cls-12" x1="84" y1="214" x2="243" y2="214"/><line class="cls-12" x1="84" y1="232" x2="243" y2="232"/><line class="cls-12" x1="84" y1="250" x2="243" y2="250"/><line class="cls-12" x1="84" y1="267" x2="243" y2="267"/><line class="cls-12" x1="84" y1="285" x2="243" y2="285"/><line class="cls-12" x1="84" y1="196" x2="243" y2="196"/><path class="cls-13" d="M134.5,89.5c3-27.83,10.54-29.62,26.8-35.74C166,52,173.36,36.47,180,29c8-9,25-8.22,26-8,5.62,1.25,7.05,1.93,11,5,9,7,5,5.22,11.5,14.5,1.74,2.48,3.74,8.25,14,9,20.5,1.5,18.39-20.21,56,8,8,6,7.84,12,27,13,15.53.82,27.08,8.52,25,18-3.68,16.72-10,21.34-30,30-21.56,9.36-53.13,11.56-75,12C200.07,133.37,131.56,135.89,134.5,89.5Z"/><line class="cls-12" x1="104" y1="197" x2="104" y2="213"/><line class="cls-12" x1="123" y1="215" x2="123" y2="231"/><line class="cls-12" x1="160" y1="215" x2="160" y2="231"/><line class="cls-12" x1="200" y1="215" x2="200" y2="231"/><line class="cls-12" x1="123" y1="251" x2="123" y2="267"/><line class="cls-12" x1="160" y1="251" x2="160" y2="267"/><line class="cls-12" x1="200" y1="251" x2="200" y2="267"/><line class="cls-12" x1="142" y1="197" x2="142" y2="213"/><line class="cls-12" x1="181" y1="197" x2="181" y2="213"/><line class="cls-12" x1="219" y1="197" x2="219" y2="213"/><line class="cls-12" x1="104" y1="233" x2="104" y2="249"/><line class="cls-12" x1="141" y1="233" x2="141" y2="249"/><line class="cls-12" x1="180" y1="233" x2="180" y2="249"/><line class="cls-12" x1="219" y1="233" x2="219" y2="249"/><line class="cls-12" x1="104" y1="268" x2="104" y2="284"/><line class="cls-12" x1="142.33" y1="268" x2="142.33" y2="284"/><line class="cls-12" x1="180.67" y1="268" x2="180.67" y2="284"/><line class="cls-12" x1="219" y1="268" x2="219" y2="284"/></g></svg>