<?xml version="1.0" encoding="utf-8"?>
<!-- Generator: Adobe Illustrator 21.0.2, SVG Export Plug-In . SVG Version: 6.00 Build 0)  -->
<svg version="1.1" xmlns="http://www.w3.org/2000/svg" xmlns:xlink="http://www.w3.org/1999/xlink" x="0px" y="0px"
	 viewBox="0 0 500 500" style="enable-background:new 0 0 500 500;" xml:space="preserve">
<style type="text/css">
	.st0{fill:url(#SVGID_1_);}
	.st1{fill:#808080;}
	.st2{fill:none;stroke:#808080;stroke-miterlimit:10;}
	.st3{fill:none;stroke:#808080;stroke-width:4;stroke-miterlimit:10;}
	.st4{fill:#333333;}
	.st5{font-family:'MyriadPro-Regular';}
	.st6{font-size:12px;}
	.st7{fill:none;stroke:#006837;stroke-width:7;stroke-miterlimit:10;}
	.st8{fill:#4D4D4D;}
	.st9{fill:none;stroke:#000000;stroke-width:4;stroke-linecap:round;stroke-miterlimit:10;}
	.st10{fill:none;stroke:#1B1464;stroke-width:7;stroke-miterlimit:10;}
	.st11{fill:none;stroke:#000000;stroke-width:3;stroke-linecap:round;stroke-miterlimit:10;}
	.st12{fill:#6D0000;}
	.st13{fill:none;stroke:#808080;stroke-width:2;stroke-miterlimit:10;}
	.st14{fill:#AAA9A9;}
</style>
<g id="Layer_1">
	<g>
		<linearGradient id="SVGID_1_" gradientUnits="userSpaceOnUse" x1="250" y1="500" x2="250" y2="-9.094947e-13">
			<stop  offset="0" style="stop-color:#CCE0F4"/>
			<stop  offset="6.405089e-02" style="stop-color:#C3DCF2"/>
			<stop  offset="0.1706" style="stop-color:#A9D2EE"/>
			<stop  offset="0.3066" style="stop-color:#80C2E7"/>
			<stop  offset="0.4649" style="stop-color:#47ACDE"/>
			<stop  offset="0.5674" style="stop-color:#1E9CD7"/>
			<stop  offset="0.8652" style="stop-color:#0075BE"/>
			<stop  offset="0.9944" style="stop-color:#005B97"/>
		</linearGradient>
		<rect class="st0" width="500" height="500"/>
	</g>
</g>
<g id="Layer_2">
	<g id="XMLID_1_">
		<g>
			<circle class="st1" cx="393.5" cy="368.5" r="17.5"/>
			<path class="st1" d="M90,351h303.5c-9.7,0-17.5,7.8-17.5,17.5s7.8,17.5,17.5,17.5H90v0c9.4-0.3,17-8,17-17.5S99.4,351.3,90,351
				L90,351z"/>
			<path class="st1" d="M90,351c9.4,0.3,17,8,17,17.5s-7.6,17.2-17,17.5c-0.2,0-0.3,0-0.5,0c-9.7,0-17.5-7.8-17.5-17.5
				S79.8,351,89.5,351C89.7,351,89.8,351,90,351z"/>
		</g>
		<g>
			<path class="st2" d="M90,351c9.4,0.3,17,8,17,17.5s-7.6,17.2-17,17.5c-0.2,0-0.3,0-0.5,0c-9.7,0-17.5-7.8-17.5-17.5
				S79.8,351,89.5,351C89.7,351,89.8,351,90,351z"/>
			<circle class="st2" cx="393.5" cy="368.5" r="17.5"/>
			<polyline class="st2" points="90,351 393.5,351 394,351 			"/>
			<polyline class="st2" points="90,386 393.5,386 394,386 			"/>
		</g>
	</g>
	<line class="st3" x1="112.5" y1="385" x2="112.5" y2="422"/>
	<line class="st3" x1="194.7" y1="385" x2="194.7" y2="422"/>
	<line class="st3" x1="276.8" y1="385" x2="276.8" y2="422"/>
	<line class="st3" x1="359" y1="385" x2="359" y2="422"/>
	<text transform="matrix(1 0 0 1 188.5 373)" class="st4 st5 st6">255.255.255.0/24</text>
	<line class="st7" x1="158" y1="284.5" x2="158" y2="351"/>
	<text transform="matrix(1 0 0 1 102 434.5)" class="st8 st5 st6">.101</text>
	<text transform="matrix(1 0 0 1 186 433.5)" class="st8 st5 st6">.102</text>
	<text transform="matrix(1 0 0 1 265 432.5)" class="st8 st5 st6">.103</text>
	<text transform="matrix(1 0 0 1 344 433.5)" class="st8 st5 st6">.104</text>
	<line class="st9" x1="177" y1="129" x2="154" y2="154"/>
	<line class="st9" x1="180" y1="153" x2="154" y2="154"/>
	<line class="st9" x1="180" y1="153" x2="158" y2="195"/>
	<line class="st10" x1="243" y1="264" x2="318.5" y2="263.5"/>
	<g>
		<line class="st11" x1="332.8" y1="233" x2="306.5" y2="288.5"/>
	</g>
	<g>
		<line class="st11" x1="332.8" y1="233" x2="359" y2="288.5"/>
	</g>
	<line class="st11" x1="322.5" y1="258.5" x2="346.5" y2="266.5"/>
	<line class="st11" x1="322.5" y1="258.5" x2="338.5" y2="247.5"/>
	<line class="st11" x1="307.3" y1="286.7" x2="347.5" y2="267.5"/>
	<path class="st11" d="M340.7,231.3c3.4-3.4,3.3-8.9-0.1-12.3"/>
	<path class="st11" d="M345.9,234.8c5.1-5.1,5-13.3-0.1-18.3"/>
	<path class="st11" d="M351.2,238.2c7-7.1,7-18.4-0.1-25.2"/>
	<path class="st11" d="M324.8,231.3c-3.4-3.4-3.3-8.9,0.1-12.3"/>
	<path class="st11" d="M319.5,234.8c-5.1-5.1-5-13.3,0.1-18.3"/>
	<path class="st11" d="M314.3,238.2c-7-7.1-7-18.4,0.1-25.2"/>
	<g>
		<rect x="84" y="195" class="st12" width="159" height="91"/>
	</g>
	<line class="st13" x1="84" y1="214" x2="243" y2="214"/>
	<line class="st13" x1="84" y1="232" x2="243" y2="232"/>
	<line class="st13" x1="84" y1="250" x2="243" y2="250"/>
	<line class="st13" x1="84" y1="267" x2="243" y2="267"/>
	<line class="st13" x1="84" y1="285" x2="243" y2="285"/>
	<line class="st13" x1="84" y1="196" x2="243" y2="196"/>
	<path class="st14" d="M134.5,89.5c3-27.8,10.5-29.6,26.8-35.7C166,52,173.4,36.5,180,29c8-9,25-8.2,26-8c5.6,1.3,7.1,1.9,11,5
		c9,7,5,5.2,11.5,14.5c1.7,2.5,3.7,8.2,14,9c20.5,1.5,18.4-20.2,56,8c8,6,7.8,12,27,13c15.5,0.8,27.1,8.5,25,18
		c-3.7,16.7-10,21.3-30,30c-21.6,9.4-53.1,11.6-75,12C200.1,133.4,131.6,135.9,134.5,89.5z"/>
	<line class="st13" x1="104" y1="197" x2="104" y2="213"/>
	<line class="st13" x1="123" y1="215" x2="123" y2="231"/>
	<line class="st13" x1="160" y1="215" x2="160" y2="231"/>
	<line class="st13" x1="200" y1="215" x2="200" y2="231"/>
	<line class="st13" x1="123" y1="251" x2="123" y2="267"/>
	<line class="st13" x1="160" y1="251" x2="160" y2="267"/>
	<line class="st13" x1="200" y1="251" x2="200" y2="267"/>
	<line class="st13" x1="142" y1="197" x2="142" y2="213"/>
	<line class="st13" x1="181" y1="197" x2="181" y2="213"/>
	<line class="st13" x1="219" y1="197" x2="219" y2="213"/>
	<line class="st13" x1="104" y1="233" x2="104" y2="249"/>
	<line class="st13" x1="141" y1="233" x2="141" y2="249"/>
	<line class="st13" x1="180" y1="233" x2="180" y2="249"/>
	<line class="st13" x1="219" y1="233" x2="219" y2="249"/>
	<line class="st13" x1="104" y1="268" x2="104" y2="284"/>
	<line class="st13" x1="142.3" y1="268" x2="142.3" y2="284"/>
	<line class="st13" x1="180.7" y1="268" x2="180.7" y2="284"/>
	<line class="st13" x1="219" y1="268" x2="219" y2="284"/>
</g>
</svg>
