<svg id="Layer_1" data-name="Layer 1" xmlns="http://www.w3.org/2000/svg" viewBox="0 0 500 500"><defs><style>.cls-1{fill:#eee;stroke:#000;stroke-linecap:round;stroke-miterlimit:10;stroke-width:12px;}</style></defs><title>Artboard 1</title><line class="cls-1" x1="240.42" y1="287.98" x2="240.42" y2="339.14"/><path class="cls-1" d="M298,117.77c-8.1-24.61-46.95-71.2-99-73.5C152.49,42.21,101,69.36,94.74,111.84a46.63,46.63,0,0,0-.44,9.37C56.15,142.28,40.64,177,43.25,206.85c5.51,63,75.57,80.76,188.07,81.08,105.87.31,235.88-13,229-95.31C457,153.08,379.77,132.71,298,117.77Z"/><line class="cls-1" x1="58.76" y1="341.22" x2="437.14" y2="341.18"/><line class="cls-1" x1="145.14" y1="341.22" x2="145.51" y2="386.51"/><line class="cls-1" x1="340.09" y1="341.22" x2="340.09" y2="387.55"/><rect class="cls-1" x="114.96" y="388.06" width="62.44" height="62.44"/><rect class="cls-1" x="309.57" y="388.06" width="62.44" height="62.44"/></svg>