<svg id="Layer_1" data-name="Layer 1" xmlns="http://www.w3.org/2000/svg" viewBox="0 0 1280 500"><defs><style>.cls-1{fill:#9ba9b2;}.cls-2{fill:#777;}.cls-3{fill:#a5a5a5;}.cls-4{fill:#999;}.cls-5{fill:#636363;}.cls-6{fill:#878787;}.cls-7{fill:#afafaf;}.cls-8{fill:#969696;}</style></defs><title>Artboard 1</title><rect class="cls-1" x="49.5" y="285" width="19" height="211.5"/><rect class="cls-1" x="138.5" y="326" width="32.5" height="226.5"/><rect class="cls-1" x="766.5" y="372" width="32.5" height="199.5"/><rect class="cls-1" x="1127.5" y="324" width="32.5" height="199.5"/><rect class="cls-1" x="994.5" y="357" width="61.5" height="199.5"/><rect class="cls-1" x="1207.5" y="304" width="72.5" height="190.5"/><rect class="cls-1" x="855" y="368" width="43" height="199.5"/><rect class="cls-1" x="342" y="392" width="67" height="178.5"/><rect class="cls-1" x="550" y="382" width="58" height="190.5"/><rect class="cls-1" x="67.5" y="295" width="17" height="193.5"/><rect class="cls-1" x="83.5" y="314" width="22.5" height="174.5"/><rect class="cls-2" x="20" y="339" width="124.5" height="261.5"/><rect class="cls-2" x="1156" y="334" width="124" height="232"/><rect class="cls-3" x="0.5" y="303" width="59" height="291.5"/><rect class="cls-3" x="1200" y="342" width="22.5" height="224"/><rect class="cls-3" x="1183" y="314" width="17" height="252"/><rect class="cls-3" x="1221" y="357" width="18.5" height="204"/><rect class="cls-2" x="1020" y="382" width="124.5" height="180"/><rect class="cls-3" x="1087.5" y="376" width="19" height="194"/><rect class="cls-3" x="1105.5" y="366" width="22.5" height="204"/><rect class="cls-2" x="155" y="349" width="39" height="247"/><rect class="cls-2" x="193" y="368" width="40" height="220"/><rect class="cls-2" x="233" y="384" width="35" height="200"/><rect class="cls-4" x="221" y="401" width="73" height="171"/><rect class="cls-2" x="315" y="408" width="124.5" height="164"/><rect class="cls-3" x="285.5" y="378" width="59" height="194"/><rect class="cls-5" x="430" y="399" width="39" height="173"/><rect class="cls-2" x="463" y="385" width="65" height="187"/><rect class="cls-2" x="528" y="399" width="35" height="173"/><rect class="cls-6" x="516" y="427" width="97" height="145"/><rect class="cls-6" x="959" y="400" width="97" height="173"/><rect class="cls-2" x="886" y="372" width="110.5" height="200"/><rect class="cls-4" x="601" y="401" width="95" height="171"/><rect class="cls-4" x="1128" y="412" width="45" height="160"/><rect class="cls-7" x="666" y="414" width="70" height="160"/><rect class="cls-2" x="755" y="422" width="39" height="150"/><rect class="cls-8" x="729" y="393" width="39" height="180"/><rect class="cls-2" x="793" y="396" width="40" height="180"/><rect class="cls-2" x="833" y="378" width="35" height="190"/><rect class="cls-3" x="821" y="418" width="73" height="154"/><rect class="cls-3" x="926" y="385" width="73" height="187"/><rect class="cls-4" x="107" y="383" width="64" height="231"/><rect class="cls-4" x="396" y="413" width="45" height="125"/><rect class="cls-3" x="593" y="417" width="17" height="213"/></svg>