<svg id="Layer_1" data-name="Layer 1" xmlns="http://www.w3.org/2000/svg" viewBox="0 0 1280 500"><defs><style>.cls-1{fill:#9ba9b2;}.cls-2{fill:#777;}.cls-3{fill:#a5a5a5;}.cls-4{fill:#ada58e;}.cls-5{fill:#c8c0a9;}.cls-6{fill:#999;}.cls-7{fill:#636363;}.cls-8{fill:#878787;}.cls-9{fill:#afafaf;}.cls-10{fill:#969696;}</style></defs><title>Artboard 1</title><rect class="cls-1" x="49.5" y="285" width="19" height="211.5"/><rect class="cls-1" x="138.5" y="326" width="32.5" height="174"/><rect class="cls-1" x="766.5" y="372" width="32.5" height="128"/><rect class="cls-1" x="798.5" y="359" width="34.5" height="141"/><rect class="cls-1" x="1127.5" y="324" width="32.5" height="176"/><rect class="cls-1" x="994.5" y="357" width="61.5" height="143"/><rect class="cls-1" x="1207.5" y="304" width="72.5" height="190.5"/><rect class="cls-1" x="855" y="362" width="43" height="138"/><rect class="cls-1" x="342" y="372" width="67" height="128"/><rect class="cls-1" x="550" y="382" width="58" height="118"/><rect class="cls-1" x="67.5" y="295" width="17" height="193.5"/><rect class="cls-1" x="83.5" y="314" width="22.5" height="174.5"/><rect class="cls-2" x="20" y="339" width="124.5" height="161"/><rect class="cls-2" x="1156" y="334" width="124" height="166"/><rect class="cls-3" x="0.5" y="303" width="59" height="197"/><rect class="cls-4" x="1200" y="342" width="22.5" height="158"/><rect class="cls-4" x="1183" y="314" width="17" height="186"/><rect class="cls-3" x="1221" y="357" width="18.5" height="143"/><rect class="cls-2" x="1020" y="382" width="104" height="118"/><rect class="cls-5" x="1078" y="362" width="28.5" height="138"/><rect class="cls-3" x="1105.5" y="352" width="22.5" height="148"/><rect class="cls-2" x="155" y="349" width="39" height="151"/><rect class="cls-5" x="193" y="368" width="40" height="132"/><rect class="cls-2" x="233" y="384" width="35" height="116"/><rect class="cls-6" x="221" y="401" width="73" height="99"/><rect class="cls-2" x="307" y="408" width="124.5" height="92"/><rect class="cls-3" x="285.5" y="384" width="78.5" height="116"/><rect class="cls-7" x="430" y="399" width="39" height="101"/><rect class="cls-2" x="463" y="385" width="65" height="115"/><rect class="cls-5" x="528" y="399" width="35" height="101"/><rect class="cls-8" x="508" y="427" width="105" height="73"/><rect class="cls-8" x="959" y="400" width="97" height="100"/><rect class="cls-2" x="886" y="372" width="110.5" height="128"/><rect class="cls-6" x="601" y="396" width="95" height="104"/><rect class="cls-6" x="1116" y="386" width="49" height="113"/><rect class="cls-9" x="678" y="414" width="58" height="86"/><rect class="cls-10" x="729" y="393" width="45" height="107"/><rect class="cls-2" x="793" y="396" width="40" height="104"/><rect class="cls-2" x="833" y="378" width="35" height="122"/><rect class="cls-3" x="829" y="418" width="82" height="82"/><rect class="cls-4" x="952" y="408" width="55" height="92"/><rect class="cls-6" x="107" y="383" width="64" height="117"/><rect class="cls-5" x="396" y="423" width="50" height="77"/><rect class="cls-4" x="268" y="440" width="55" height="60"/><rect class="cls-4" x="25" y="357" width="45" height="143"/><rect class="cls-4" x="585" y="417" width="55" height="83"/><rect class="cls-2" x="755" y="422" width="39" height="78"/></svg>